<svg width="36" height="36" viewBox="0 0 36 36" fill="none" xmlns="http://www.w3.org/2000/svg">
<path d="M7.50512 13.0292C4.68868 11.7911 1.84496 12.3257 1.15278 14.2293C0.4606 16.133 2.18593 18.6746 5.00237 19.9162C7.81882 21.1542 10.6625 20.6197 11.3547 18.716C12.0469 16.8124 10.3216 14.2673 7.50512 13.0292Z" fill="#9F7D33"/>
<path d="M33.726 3.71095C32.0757 2.566 29.4502 3.79372 27.8647 6.45607C26.2791 9.11843 26.3303 12.2015 27.984 13.3465C29.6343 14.4914 32.2598 13.2637 33.8454 10.6014C35.4309 7.93899 35.3763 4.8559 33.726 3.71095Z" fill="#9F7D33"/>
<path d="M8.98154 4.04552C7.37555 5.2353 7.45398 8.30804 9.16226 10.9117C10.8671 13.512 13.554 14.657 15.16 13.4637C16.7694 12.274 16.6875 9.20124 14.9827 6.60096C13.2744 4.00069 10.5909 2.85573 8.98154 4.04552Z" fill="#9F7D33"/>
<path d="M21.5157 0.000225835C19.5245 -0.0273633 17.9901 2.47635 18.089 5.59738C18.1878 8.7184 19.8825 11.2704 21.8738 11.298C23.865 11.3256 25.3994 8.82186 25.3005 5.70084C25.2017 2.57981 23.5036 0.027815 21.5157 0.000225835Z" fill="#9F7D33"/>
<path d="M29.9957 17.071C26.8519 14.2604 23.0023 13.081 19.9097 13.6638C19.9028 13.6638 19.8994 13.6672 19.8926 13.6672C19.7937 13.6845 19.6914 13.7086 19.5926 13.7293C19.5278 13.7431 19.463 13.7603 19.4016 13.7741C19.3368 13.7914 19.272 13.8086 19.2073 13.8293C19.1357 13.85 19.0675 13.8707 18.9959 13.8948C18.9243 13.919 18.8561 13.9431 18.7879 13.9673C18.7231 13.9914 18.6617 14.0121 18.5969 14.0362C18.5355 14.0604 18.4742 14.0845 18.4128 14.1121C18.3173 14.15 18.2253 14.1914 18.1332 14.2363C18.1264 14.2397 18.123 14.2397 18.1196 14.2432C15.2622 15.5778 12.8004 18.7954 11.849 22.9269C10.4374 29.0482 12.872 34.8557 17.2842 35.8972C19.9983 36.5352 21.9248 34.0349 25.0379 33.0314C28.151 32.0278 31.155 32.9348 32.9997 30.8242C35.9968 27.3928 34.6534 21.2336 29.9957 17.071ZM27.6464 24.7581L24.0661 29.8241L18.2457 27.7929C16.9364 27.5756 15.7941 26.6445 15.3645 25.2823C14.7541 23.3476 15.8112 21.2784 17.724 20.6611C19.1084 20.2128 20.5643 20.6507 21.4918 21.6612C21.6725 20.2955 22.6068 19.0851 23.9911 18.6402C25.904 18.0229 27.9498 19.092 28.5602 21.0266C28.9864 22.3854 28.5875 23.8132 27.6464 24.7581Z" fill="#9F7D33"/>
</svg>
